<?xml version="1.0" encoding="UTF-8" standalone="no"?>
<!DOCTYPE svg PUBLIC "-//W3C//DTD SVG 1.1//EN" "http://www.w3.org/Graphics/SVG/1.1/DTD/svg11.dtd">
<svg width="100%" height="100%" viewBox="0 0 256 256" version="1.1" xmlns="http://www.w3.org/2000/svg" xmlns:xlink="http://www.w3.org/1999/xlink" xml:space="preserve" xmlns:serif="http://www.serif.com/" style="fill-rule:evenodd;clip-rule:evenodd;stroke-linejoin:round;stroke-miterlimit:2;">
    <path d="M-0,203.255L-0,52.745C-0,13.657 13.657,0 52.745,0L203.255,0C242.343,0 256,13.657 256,52.745L256,203.255C256,242.343 242.343,256 203.255,256L52.745,256C13.657,256 -0,242.343 -0,203.255Z" style="fill:white;"/>
    <g transform="matrix(-0.521694,6.90383e-33,6.90383e-33,0.521694,232.833,26.1838)">
        <path d="M245,336L247,338C246,347 246,352 246,355C246,383 261,396 297,396C328,396 366,383 381,368C386,363 388,357 388,348C388,340 387,334 386,331C367,340 351,346 338,346C322,346 312,336 312,278C312,237 320,125 320,100C320,25 280,-10 207,-10C120,-10 49,31 49,81C49,106 66,124 91,124C103,124 111,122 121,116C119,108 118,100 118,90C118,51 144,27 182,27C228,27 249,57 249,127C249,134 249,154 247,188C171,191 134,198 100,215C58,237 36,270 36,311C36,362 73,397 126,397C166,397 203,379 245,336ZM245,227L240,307C211,331 188,340 161,340C126,340 107,324 107,296C107,253 158,228 245,227Z" style="fill:rgb(244,50,40);fill-rule:nonzero;"/>
    </g>
</svg>
